<svg id="visual" viewBox="0 0 960 540" width="960" height="540" xmlns="http://www.w3.org/2000/svg" xmlns:xlink="http://www.w3.org/1999/xlink" version="1.1"><rect x="0" y="0" width="960" height="540" fill="#fff0f3"></rect><defs><linearGradient id="grad1_0" x1="43.8%" y1="0%" x2="100%" y2="100%"><stop offset="14.444444444444446%" stop-color="#ff4d6d" stop-opacity="1"></stop><stop offset="85.55555555555554%" stop-color="#ff4d6d" stop-opacity="1"></stop></linearGradient></defs><defs><linearGradient id="grad1_1" x1="43.8%" y1="0%" x2="100%" y2="100%"><stop offset="14.444444444444446%" stop-color="#ff4d6d" stop-opacity="1"></stop><stop offset="85.55555555555554%" stop-color="#ff8a9d" stop-opacity="1"></stop></linearGradient></defs><defs><linearGradient id="grad1_2" x1="43.8%" y1="0%" x2="100%" y2="100%"><stop offset="14.444444444444446%" stop-color="#ffbecb" stop-opacity="1"></stop><stop offset="85.55555555555554%" stop-color="#ff8a9d" stop-opacity="1"></stop></linearGradient></defs><defs><linearGradient id="grad1_3" x1="43.8%" y1="0%" x2="100%" y2="100%"><stop offset="14.444444444444446%" stop-color="#ffbecb" stop-opacity="1"></stop><stop offset="85.55555555555554%" stop-color="#fff0f3" stop-opacity="1"></stop></linearGradient></defs><defs><linearGradient id="grad2_0" x1="0%" y1="0%" x2="56.3%" y2="100%"><stop offset="14.444444444444446%" stop-color="#ff4d6d" stop-opacity="1"></stop><stop offset="85.55555555555554%" stop-color="#ff4d6d" stop-opacity="1"></stop></linearGradient></defs><defs><linearGradient id="grad2_1" x1="0%" y1="0%" x2="56.3%" y2="100%"><stop offset="14.444444444444446%" stop-color="#ff8a9d" stop-opacity="1"></stop><stop offset="85.55555555555554%" stop-color="#ff4d6d" stop-opacity="1"></stop></linearGradient></defs><defs><linearGradient id="grad2_2" x1="0%" y1="0%" x2="56.3%" y2="100%"><stop offset="14.444444444444446%" stop-color="#ff8a9d" stop-opacity="1"></stop><stop offset="85.55555555555554%" stop-color="#ffbecb" stop-opacity="1"></stop></linearGradient></defs><defs><linearGradient id="grad2_3" x1="0%" y1="0%" x2="56.3%" y2="100%"><stop offset="14.444444444444446%" stop-color="#fff0f3" stop-opacity="1"></stop><stop offset="85.55555555555554%" stop-color="#ffbecb" stop-opacity="1"></stop></linearGradient></defs><g transform="translate(960, 0)"><path d="M0 405C-39.3 393.8 -78.5 382.5 -121.1 372.8C-163.8 363.1 -209.8 354.9 -238.1 327.7C-266.3 300.4 -276.9 254 -301 218.7C-325.1 183.3 -362.7 158.8 -382.3 124.2C-401.9 89.6 -403.5 44.8 -405 0L0 0Z" fill="#ffd7df"></path><path d="M0 303.8C-29.4 295.3 -58.9 286.9 -90.9 279.6C-122.8 272.3 -157.3 266.2 -178.5 245.7C-199.7 225.3 -207.6 190.5 -225.7 164C-243.8 137.5 -272 119.1 -286.7 93.2C-301.4 67.2 -302.6 33.6 -303.7 0L0 0Z" fill="#ffa5b5"></path><path d="M0 202.5C-19.6 196.9 -39.3 191.3 -60.6 186.4C-81.9 181.6 -104.9 177.5 -119 163.8C-133.2 150.2 -138.4 127 -150.5 109.3C-162.5 91.6 -181.4 79.4 -191.2 62.1C-201 44.8 -201.7 22.4 -202.5 0L0 0Z" fill="#ff6e86"></path><path d="M0 101.3C-9.8 98.4 -19.6 95.6 -30.3 93.2C-40.9 90.8 -52.4 88.7 -59.5 81.9C-66.6 75.1 -69.2 63.5 -75.2 54.7C-81.3 45.8 -90.7 39.7 -95.6 31.1C-100.5 22.4 -100.9 11.2 -101.2 0L0 0Z" fill="#ff4d6d"></path></g><g transform="translate(0, 540)"><path d="M0 -405C39.7 -395.2 79.5 -385.4 122.1 -375.7C164.7 -365.9 210.1 -356.3 238.1 -327.7C266 -299 276.4 -251.4 295.3 -214.5C314.2 -177.6 341.7 -151.4 361.4 -117.4C381.1 -83.4 393.1 -41.7 405 0L0 0Z" fill="#ffd7df"></path><path d="M0 -303.7C29.8 -296.4 59.6 -289 91.5 -281.8C123.5 -274.5 157.6 -267.2 178.5 -245.7C199.5 -224.3 207.3 -188.6 221.5 -160.9C235.7 -133.2 256.3 -113.6 271.1 -88.1C285.8 -62.6 294.8 -31.3 303.8 0L0 0Z" fill="#ffa5b5"></path><path d="M0 -202.5C19.9 -197.6 39.7 -192.7 61 -187.8C82.3 -183 105.1 -178.1 119 -163.8C133 -149.5 138.2 -125.7 147.6 -107.3C157.1 -88.8 170.8 -75.7 180.7 -58.7C190.6 -41.7 196.5 -20.9 202.5 0L0 0Z" fill="#ff6e86"></path><path d="M0 -101.2C9.9 -98.8 19.9 -96.3 30.5 -93.9C41.2 -91.5 52.5 -89.1 59.5 -81.9C66.5 -74.8 69.1 -62.9 73.8 -53.6C78.6 -44.4 85.4 -37.9 90.4 -29.4C95.3 -20.9 98.3 -10.4 101.3 0L0 0Z" fill="#ff4d6d"></path></g></svg>